# xmcd CD database file
#
# Track frame offsets:
#	150
#	17231
#	33955
#	51337
#	65142
#	80238
#	98241
#	115567
#	133263
#	150865
#	167242
#	182256
#	205295
#	230645
#	255333
#	277116
#	292872
#	302653
#
# Disc length: 4297 seconds
#
# Revision: 0
# Processed by: cddbd v1.5.2PL0 Copyright (c) Steve Scherf et al.
# Submitted via: CDex 1.51
#
DISCID=f910c712
DTITLE=Various Artist - Latin Varadero - The best of the Millenium
DYEAR=2000
DGENRE=Salsa
TTITLE0=Marc Anthony - I need to know
TTITLE1=Mana - Se me olividó otra vez
TTITLE2=Carlos Vives - Fruta Fresca
TTITLE3=Havana Delirio 1830 - Carnavalera
TTITLE4=La Bomba
TTITLE5=Who let the dogs out 
TTITLE6=Los Locos - La Vuelta
TTITLE7=La Colita
TTITLE8=Lou Prince - Follow the Lider
TTITLE9=Lou Prince - Arriba!, Abajo!
TTITLE10=Barrio Latino - 1,2,3
TTITLE11=Issac Delgado - La vida es un Carnaval
TTITLE12=Carlos Manuel y su Clan - Agua Fria
TTITLE13=Los van Van - El Negro está Cocinando
TTITLE14=Los van Van - Temba, Timba, Tumba
TTITLE15=Enrique Iglesias - Rhythm divine
TTITLE16=Wisegoy - Mambo Italiano
TTITLE17=Santana - Maria Maria
EXTD=YEAR: 2000
EXTT0=
EXTT1=
EXTT2=
EXTT3=
EXTT4=
EXTT5=
EXTT6=
EXTT7=
EXTT8=
EXTT9=
EXTT10=
EXTT11=
EXTT12=
EXTT13=
EXTT14=
EXTT15=
EXTT16=
EXTT17=
PLAYORDER=
